<svg xmlns="http://www.w3.org/2000/svg" viewBox="0 0 97.03 94.94"><defs><style>.cls-1,.cls-2,.cls-3,.cls-6{fill:none;}.cls-1,.cls-2,.cls-3,.cls-5,.cls-6{stroke:#00b075;}.cls-1,.cls-3,.cls-5,.cls-6{stroke-miterlimit:10;}.cls-1,.cls-5{stroke-width:5px;}.cls-2{stroke-linecap:round;stroke-linejoin:round;}.cls-2,.cls-6{stroke-width:4px;}.cls-3{stroke-width:3px;}.cls-4{fill:#00b075;}.cls-5{fill:#fff;}</style></defs><g id="Layer_2" data-name="Layer 2"><g id="Layer_1-2" data-name="Layer 1"><path class="cls-1" d="M16.29,48.21H79.65a2.87,2.87,0,0,1,2.87,2.87v8.45a0,0,0,0,1,0,0H13.42a0,0,0,0,1,0,0V51.07A2.87,2.87,0,0,1,16.29,48.21Z"/><rect class="cls-1" x="2.5" y="10.3" width="92.03" height="49.22" rx="10.96"/><path class="cls-1" d="M20.27,2.5H76.76A2.94,2.94,0,0,1,79.7,5.44v4.63a0,0,0,0,1,0,0H17.33a0,0,0,0,1,0,0V5.44A2.94,2.94,0,0,1,20.27,2.5Z"/><line class="cls-2" x1="19.92" y1="38.81" x2="75.03" y2="38.81"/><circle class="cls-3" cx="18.81" cy="22.32" r="3.85"/><circle class="cls-3" cx="32.61" cy="22.32" r="3.85"/><circle class="cls-3" cx="46.14" cy="22.32" r="3.85"/><path class="cls-4" d="M90.05,35.93s.18-4.76-3-6.42c-3-1.57-6.23.3-6.23.3s1,3.73,2.92,5.3,5,.32,5,.32a14.79,14.79,0,0,0-3.46-3.21l-1.71-.95S87.3,31.6,90.05,35.93Z"/><path class="cls-4" d="M89.67,28.43S91,22.76,87.57,20C84.31,17.41,80,18.89,80,18.89s.33,4.72,2.29,7.07,6,1.57,6,1.57a18.11,18.11,0,0,0-3.43-4.67L83,21.3S87.36,22.58,89.67,28.43Z"/><rect class="cls-2" x="64.91" y="23.36" width="8.56"/><rect class="cls-5" x="21.45" y="48.57" width="53.04" height="43.87"/><polyline class="cls-6" points="42.52 55.2 34.16 55.2 34.16 62.69"/><polyline class="cls-6" points="52.38 55.2 60.4 55.2 60.4 62.69"/><polyline class="cls-6" points="42.18 82.11 34.16 82.11 34.16 73.65"/><line class="cls-6" x1="40.36" y1="72.03" x2="40.36" y2="59.59"/><line class="cls-6" x1="55.29" y1="68.97" x2="55.29" y2="77.88"/><line class="cls-6" x1="55.29" y1="59.59" x2="55.29" y2="67.26"/><line class="cls-6" x1="47.68" y1="70.73" x2="47.68" y2="66.04"/><line class="cls-6" x1="38.39" y1="75.93" x2="42.18" y2="75.93"/><line class="cls-6" x1="47.97" y1="61.62" x2="51.75" y2="61.62"/><line class="cls-6" x1="43.83" y1="75.84" x2="50.32" y2="75.84"/><line class="cls-6" x1="41.83" y1="61.62" x2="45.83" y2="61.62"/><polyline class="cls-6" points="53.15 82.11 60.94 82.11 60.94 74.19"/><line class="cls-6" x1="49.4" y1="75.84" x2="53.66" y2="75.84"/></g></g></svg>