<svg xmlns="http://www.w3.org/2000/svg" viewBox="0 0 89.12 85.42"><defs><style>.cls-1{fill:#54b761;}.cls-2,.cls-3,.cls-4{fill:none;stroke:#54b761;}.cls-2{stroke-miterlimit:10;}.cls-2,.cls-3{stroke-width:5px;}.cls-3,.cls-4{stroke-linecap:round;stroke-linejoin:round;}.cls-4{stroke-width:4px;}</style></defs><g id="Layer_2" data-name="Layer 2"><g id="Layer_1-2" data-name="Layer 1"><path class="cls-1" d="M62.46,24.32C47,25.75,41,36,41,36c2.75,4.41,10.33,5.35,15.23,3.83a33.69,33.69,0,0,0,8.24-4.44,27.34,27.34,0,0,1,8.35-4.16c3-.74,6.52-.37,8.86,1.72A28.72,28.72,0,0,0,54.57,16.08,19.81,19.81,0,0,0,42.71,20a13.69,13.69,0,0,0-5,10.91C47.18,21.33,62.46,24.32,62.46,24.32Z"/><path class="cls-1" d="M38.94,57.29c2.53,1.3,6.35-.38,8.23-2.47a18.53,18.53,0,0,0,2.63-4.39,15.13,15.13,0,0,1,2.76-4.3,5.43,5.43,0,0,1,4.65-1.67,15.75,15.75,0,0,0-17.44-.33,10.78,10.78,0,0,0-4.47,5.18,7.51,7.51,0,0,0,.7,6.53c2.37-7.48,9.79-10,9.79-10C38.91,50.8,38.94,57.29,38.94,57.29Z"/><path class="cls-1" d="M59.08,84.4a30,30,0,0,0,30-30c0-.32,0-.64,0-1a28.13,28.13,0,0,1-51,15.43,23.19,23.19,0,0,1,3.8-20.18S36.48,52.56,35,63.27a28.16,28.16,0,0,1,25-38.93l-1,0a30,30,0,0,0,0,60.08Z"/><polyline class="cls-2" points="24.27 15.67 15.41 15.67 15.41 24.53"/><polyline class="cls-2" points="45.86 15.67 68.02 15.67 68.02 25.5"/><polyline class="cls-2" points="27.17 69.62 15.41 69.62 15.41 52.67"/><line class="cls-2" x1="15.41" y1="40.71" x2="15.41" y2="34.86"/><path class="cls-3" d="M41.94,82.92H5.33A2.83,2.83,0,0,1,2.5,80.09V5.33A2.83,2.83,0,0,1,5.33,2.5H78.55a2.83,2.83,0,0,1,2.83,2.83V24.67"/><polyline class="cls-4" points="53.57 55.31 62.91 70.27 78.3 42.85"/></g></g></svg>