<svg xmlns="http://www.w3.org/2000/svg" xmlns:xlink="http://www.w3.org/1999/xlink" viewBox="0 0 88.79 97.14"><defs><style>.cls-1,.cls-2{fill:none;stroke:#54b761;stroke-width:5px;}.cls-1{stroke-miterlimit:10;}.cls-2{stroke-linecap:round;stroke-linejoin:round;}.cls-3{fill:#54b761;}.cls-4{fill:url(#linear-gradient);}</style><linearGradient id="linear-gradient" x1="295.97" y1="107.02" x2="354.94" y2="71.84" gradientTransform="matrix(-1, 0, 0, 1, 356.98, 0)" gradientUnits="userSpaceOnUse"><stop offset="0" stop-color="#e7f4eb"/><stop offset="0.11" stop-color="#b9dec8"/><stop offset="0.2" stop-color="#84c78e"/><stop offset="0.37" stop-color="#72c07d"/><stop offset="0.58" stop-color="#71c07b"/><stop offset="0.8" stop-color="#59b865"/><stop offset="1" stop-color="#54b761"/></linearGradient></defs><g id="Layer_2" data-name="Layer 2"><g id="Layer_1-2" data-name="Layer 1"><rect class="cls-1" x="8.22" y="2.5" width="78.07" height="92.14" rx="7.33"/><line class="cls-1" x1="24.76" y1="2.5" x2="24.76" y2="94.64"/><line class="cls-2" x1="2.5" y1="17.76" x2="15.03" y2="17.76"/><line class="cls-2" x1="2.64" y1="38.41" x2="15.17" y2="38.41"/><line class="cls-2" x1="2.64" y1="59.06" x2="15.17" y2="59.06"/><line class="cls-2" x1="2.72" y1="79.72" x2="15.25" y2="79.72"/><line class="cls-2" x1="38.07" y1="65.66" x2="53.72" y2="65.66"/><line class="cls-2" x1="38.07" y1="44.99" x2="68.13" y2="44.99"/><line class="cls-2" x1="38.07" y1="24.31" x2="68.13" y2="24.31"/><path class="cls-3" d="M66.89,58.84C78.49,62.59,80.6,71,80.6,71s-1.26-.88-6.51-.68A15.12,15.12,0,0,1,62.85,65.8c-1.69-1.87-6.17-6.62-4.09-16,0,0,3.54,3.51,11.47,4.27C83.93,55.36,83,66.86,83,66.86S79.06,59.08,66.89,58.84Z"/><path class="cls-4" d="M72.6,93.57c-10.45,1.22-20.37-3.06-29.55-7.52C34.66,82,25,80.16,15.78,82.42A28,28,0,0,0,1.15,91.68c10.34-7.1,23.76-8.22,36.07-4.79,5.66,1.57,10.87,4.38,16.56,5.92C59.86,94.45,66.43,95.19,72.6,93.57Z"/><path class="cls-3" d="M79,80.32s-.69-.34-3.25.13A7.52,7.52,0,0,1,69.88,79a8.11,8.11,0,0,1-3.15-7.57s2,1.47,5.94,1.28c6.83-.34,7.2,5.38,7.2,5.38s-2.44-3-8.41-3C77.56,76.74,79,80.32,79,80.32Z"/><path class="cls-3" d="M46.19,83.64c5.14,1.94,10.38,4.56,15.9,5.15,6.37.69,13-.62,16.75-6.22a19.48,19.48,0,0,0,1.17-2,10.7,10.7,0,0,0-4.47-4.28,9.72,9.72,0,0,1,4.94,3.29c3.74-8.7-1.49-17.24-10.2-20C76.83,61,81.79,64.71,83.61,70.49a16.22,16.22,0,0,1-5.32,17.42c-5.05,4-11.66,4.11-17.71,2.83C48.1,88.11,37.34,78.41,24,79.71,31.52,78.36,39.23,81,46.19,83.64Z"/></g></g></svg>