<svg xmlns="http://www.w3.org/2000/svg" viewBox="0 0 105.81 95.51"><defs><style>.cls-1,.cls-2{fill:#54b761;}.cls-1{stroke:#54b761;stroke-miterlimit:10;stroke-width:3px;}</style></defs><g id="Layer_2" data-name="Layer 2"><g id="Layer_1-2" data-name="Layer 1"><path class="cls-1" d="M92.71,94H2.34a.85.85,0,0,1-.84-.85V52a.84.84,0,0,1,.84-.84H76.41a.83.83,0,0,1,.71.38.84.84,0,0,1,.07.8L72.11,63.93l.43,11.44,8.59-7.47,7.11-16.22a.84.84,0,0,1,.78-.5h3.69a.84.84,0,0,1,.85.84V93.16A.85.85,0,0,1,92.71,94ZM3.19,92.32H91.87V52.86h-2.3l-7,15.89a1.05,1.05,0,0,1-.22.3L72.32,77.81a.85.85,0,0,1-.89.13.82.82,0,0,1-.51-.74l-.5-13.4a.67.67,0,0,1,.07-.37l4.63-10.57H3.19Z"/><path class="cls-1" d="M55.27,62.36H18.35a.84.84,0,0,1-.85-.84.85.85,0,0,1,.85-.85H55.27a.85.85,0,0,1,.84.85A.84.84,0,0,1,55.27,62.36Z"/><path class="cls-1" d="M65.82,73.44H18.35a.85.85,0,1,1,0-1.69H65.82a.85.85,0,0,1,0,1.69Z"/><path class="cls-1" d="M45.77,84.51H18.35a.85.85,0,1,1,0-1.69H45.77a.85.85,0,1,1,0,1.69Z"/><path class="cls-1" d="M71.76,78a.75.75,0,0,1-.33-.07.82.82,0,0,1-.51-.74l-.5-13.4a.67.67,0,0,1,.07-.37l19.8-45.15a.85.85,0,0,1,1.12-.43L102,22.48a.84.84,0,0,1,.45.46.86.86,0,0,1,0,.65L82.6,68.75a1.05,1.05,0,0,1-.22.3L72.32,77.81A.89.89,0,0,1,71.76,78Zm.35-14.08.43,11.44,8.59-7.47,19.39-44.21-9-4-.76,1.73Z"/><path class="cls-1" d="M81.82,69.25a.78.78,0,0,1-.33-.07L70.92,64.54a.84.84,0,0,1-.43-1.11A.85.85,0,0,1,71.6,63l10.56,4.65a.84.84,0,0,1,.44,1.11A.86.86,0,0,1,81.82,69.25Z"/><path class="cls-1" d="M101.63,24.1a1.09,1.09,0,0,1-.34-.07L90.73,19.4a.83.83,0,0,1-.45-.47.86.86,0,0,1,0-.65l1.65-3.74a3.18,3.18,0,0,1,4.11-1.6l6.39,2.8a3.13,3.13,0,0,1,1.61,4.12l-1.64,3.73A.85.85,0,0,1,101.63,24.1Zm-9.45-5.91,9,3.95,1.31-3a1.45,1.45,0,0,0-.74-1.89l-6.4-2.8a1.45,1.45,0,0,0-1.88.73Z"/><path class="cls-1" d="M99.14,30.31a1,1,0,0,1-.34-.07L88.23,25.6a.85.85,0,0,1,.68-1.55l10.57,4.64a.85.85,0,0,1-.34,1.62Z"/><path class="cls-2" d="M73.37,48.48s5.4-10.45-.05-17.42c-5.17-6.61-14.47-5.76-14.47-5.76s-1.66,9.37,1.09,14.89S71,46,71,46s-1.62-6.83-4.51-10.74l-2.88-3.9S71.66,36,73.37,48.48Z"/><path class="cls-2" d="M80.36,31.33s9-11.32,4-21C79.72,1.15,68.32,0,68.32,0s-4.19,10.9-2.19,18.18S78,27.82,78,27.82s-.34-8.61-2.9-14L72.57,8.45S81.24,15.86,80.36,31.33Z"/></g></g></svg>