<svg xmlns="http://www.w3.org/2000/svg" viewBox="0 0 98.94 73.13"><defs><style>.cls-1,.cls-3{fill:none;stroke:#54b761;stroke-width:3px;}.cls-1{stroke-linecap:round;stroke-linejoin:round;}.cls-2{fill:#54b761;}.cls-3{stroke-miterlimit:10;}</style></defs><g id="Layer_2" data-name="Layer 2"><g id="Layer_1-2" data-name="Layer 1"><rect class="cls-1" x="1.5" y="1.5" width="95.94" height="70.13" rx="4.94"/><line class="cls-1" x1="60.25" y1="27.64" x2="74.07" y2="27.64"/><line class="cls-1" x1="82.62" y1="27.72" x2="88.77" y2="27.72"/><path class="cls-2" d="M66.64,56.1s5.19-7.73,1.53-13.7c-3.46-5.67-10.85-5.83-10.85-5.83s-2.15,7.21-.49,11.79S65,54,65,54s-.65-5.51-2.56-8.85l-1.92-3.33S66.43,46.11,66.64,56.1Z"/><path class="cls-2" d="M60.47,61.28S64.61,47,75.65,45.38c10.47-1.56,18.24,7.3,18.24,7.3S87.27,62.69,80,65.35,64.8,61.14,64.8,61.14s7.41-4.85,13.45-5.91l6-1.07S72.9,51.32,60.47,61.28Z"/><circle class="cls-3" cx="30.53" cy="31.83" r="18.23"/><line class="cls-3" x1="1.5" y1="35.21" x2="12.64" y2="35.29"/><circle class="cls-2" cx="30.32" cy="27.64" r="7.14"/><path class="cls-2" d="M19.37,47.55H42S43.8,35.9,35.17,35.66s-11.75.49-11.75.49S17.31,37.53,19.37,47.55Z"/><line class="cls-1" x1="12.3" y1="59.51" x2="48.76" y2="59.51"/></g></g></svg>